<?xml version="1.0" encoding="UTF-8"?>
<svg width="226px" height="210px" viewBox="0 0 226 210" version="1.1" xmlns="http://www.w3.org/2000/svg" xmlns:xlink="http://www.w3.org/1999/xlink">
    <title>4DCD160D-7036-4F96-8654-6F552D39062C</title>
    <g id="Live-States" stroke="none" stroke-width="1" fill="none" fill-rule="evenodd">
        <g id="LIveState_Before" transform="translate(-607.000000, -3323.000000)" fill="#E0E0E0" fill-rule="nonzero">
            <path d="M747.155535,3329.43975 C752.355838,3330.21522 762.740139,3334.93209 763.899485,3345.75875 C765.946751,3364.87734 764.670444,3383.58363 764.670444,3383.58363 C764.670444,3383.58363 769.141391,3382.9804 770.6642,3387.17604 C772.187008,3391.37168 768.870052,3413.78387 765.205377,3416.57011 C761.540702,3419.35634 760.017893,3419.38785 760.017893,3419.38785 C760.017893,3419.38785 757.95015,3437.01052 753.214395,3442.1058 C751.230097,3444.24074 748.103025,3464.1436 758.260067,3475.1091 C768.417109,3486.0746 795.422791,3496.61497 811.538602,3503.24383 C827.654413,3509.87269 833,3533 833,3533 L607,3533 C607,3533 612.345587,3509.87269 628.461398,3503.24383 C644.577209,3496.61497 671.582891,3486.0746 681.739933,3475.1091 C691.896975,3464.1436 688.769903,3444.24074 686.785605,3442.1058 C682.04985,3437.01052 679.982107,3419.38785 679.982107,3419.38785 C679.982107,3419.38785 678.459298,3419.35634 674.794623,3416.57011 C671.129948,3413.78387 667.812992,3391.37168 669.3358,3387.17604 C670.858609,3382.9804 675.329556,3383.58363 675.329556,3383.58363 C675.329556,3383.58363 676.092295,3361.25155 676.092295,3358.10962 C676.092295,3355.50978 671.517768,3355.99728 671.808888,3354.34871 C676.127874,3329.89104 700.259395,3323.01799 720.558661,3323 C729.362658,3322.99287 743.779825,3323 747.155535,3329.43975 Z" id="Path"></path>
        </g>
    </g>
</svg>